# Blender v2.91.2 OBJ File: ''
# www.blender.org
mtllib OB.mtl
o Torus
v 1.250000 0.000000 0.000000
v 1.000000 0.250000 0.000000
v 0.750000 0.000000 0.000000
v 1.000000 -0.250000 0.000000
v 0.625000 0.000000 -1.082532
v 0.500000 0.250000 -0.866025
v 0.375000 0.000000 -0.649519
v 0.500000 -0.250000 -0.866025
v -0.625000 0.000000 -1.082532
v -0.500000 0.250000 -0.866026
v -0.375000 0.000000 -0.649519
v -0.500000 -0.250000 -0.866026
v -1.250000 0.000000 -0.000000
v -1.000000 0.250000 -0.000000
v -0.750000 0.000000 -0.000000
v -1.000000 -0.250000 -0.000000
v -0.625000 0.000000 1.082532
v -0.500000 0.250000 0.866026
v -0.375000 0.000000 0.649519
v -0.500000 -0.250000 0.866026
v 0.625000 0.000000 1.082532
v 0.500000 0.250000 0.866025
v 0.375000 0.000000 0.649519
v 0.500000 -0.250000 0.866025
vt 0.500000 0.500000
vt 0.666667 0.500000
vt 0.666667 0.750000
vt 0.500000 0.750000
vt 0.666667 1.000000
vt 0.500000 1.000000
vt 0.500000 0.000000
vt 0.666667 0.000000
vt 0.666667 0.250000
vt 0.500000 0.250000
vt 0.833333 0.500000
vt 0.833333 0.750000
vt 0.833333 1.000000
vt 0.833333 0.000000
vt 0.833333 0.250000
vt 1.000000 0.500000
vt 1.000000 0.750000
vt 1.000000 1.000000
vt 1.000000 0.000000
vt 1.000000 0.250000
vt -0.000000 0.500000
vt 0.166667 0.500000
vt 0.166667 0.750000
vt -0.000000 0.750000
vt 0.166667 1.000000
vt -0.000000 1.000000
vt -0.000000 0.000000
vt 0.166667 0.000000
vt 0.166667 0.250000
vt -0.000000 0.250000
vt 0.333333 0.500000
vt 0.333333 0.750000
vt 0.333333 1.000000
vt 0.333333 0.000000
vt 0.333333 0.250000
vn 0.6547 0.6547 -0.3780
vn -0.6547 0.6547 0.3780
vn -0.6547 -0.6547 0.3780
vn 0.6547 -0.6547 -0.3780
vn 0.0000 0.6547 -0.7559
vn -0.0000 0.6547 0.7559
vn -0.0000 -0.6547 0.7559
vn 0.0000 -0.6547 -0.7559
vn -0.6547 0.6547 -0.3780
vn 0.6547 0.6547 0.3780
vn 0.6547 -0.6547 0.3780
vn -0.6547 -0.6547 -0.3780
usemtl Material.001
f 1/1/1 5/2/1 6/3/1 2/4/1
f 2/4/2 6/3/2 7/5/2 3/6/2
f 3/7/3 7/8/3 8/9/3 4/10/3
f 4/10/4 8/9/4 5/2/4 1/1/4
f 5/2/5 9/11/5 10/12/5 6/3/5
f 6/3/6 10/12/6 11/13/6 7/5/6
f 7/8/7 11/14/7 12/15/7 8/9/7
f 8/9/8 12/15/8 9/11/8 5/2/8
f 9/11/9 13/16/9 14/17/9 10/12/9
f 10/12/10 14/17/10 15/18/10 11/13/10
f 11/14/11 15/19/11 16/20/11 12/15/11
f 12/15/12 16/20/12 13/16/12 9/11/12
f 13/21/2 17/22/2 18/23/2 14/24/2
f 14/24/1 18/23/1 19/25/1 15/26/1
f 15/27/4 19/28/4 20/29/4 16/30/4
f 16/30/3 20/29/3 17/22/3 13/21/3
f 17/22/6 21/31/6 22/32/6 18/23/6
f 18/23/5 22/32/5 23/33/5 19/25/5
f 19/28/8 23/34/8 24/35/8 20/29/8
f 20/29/7 24/35/7 21/31/7 17/22/7
f 21/31/10 1/1/10 2/4/10 22/32/10
f 22/32/9 2/4/9 3/6/9 23/33/9
f 23/34/12 3/7/12 4/10/12 24/35/12
f 24/35/11 4/10/11 1/1/11 21/31/11
